<svg xmlns="http://www.w3.org/2000/svg" xmlns:xlink="http://www.w3.org/1999/xlink" xmlns:lucid="lucid" width="439.7" height="488.67"><g transform="translate(-2201.3039898782263 -459)" lucid:page-tab-id="0_0"><path d="M1600 0h1760v1360H1600z" fill="#fff"/><path d="M2466.67 460c7.36 0 13.33 5.97 13.33 13.33 0 7.37-5.97 13.34-13.33 13.34h-53.34c-7.36 0-13.33-5.97-13.33-13.34 0-7.36 5.97-13.33 13.33-13.33z" stroke="#000" stroke-width="2" fill="#fff"/><use xlink:href="#a" transform="matrix(1,0,0,1,2405,465) translate(26.693375637547234 10.99971055445489)"/><path d="M2400 534.64a8.7 8.7 0 0 1 7.97-8.66l64.06-5.32A7.36 7.36 0 0 1 2480 528v24a8 8 0 0 1-8 8h-64a8 8 0 0 1-8-8z" stroke="#000" stroke-width="2" fill="#fff"/><use xlink:href="#b" transform="matrix(1,0,0,1,2405,531.6666666666666) translate(5.616664452198288 15.719096184524485)"/><use xlink:href="#c" transform="matrix(1,0,0,1,2405,531.6666666666666) translate(39.61245599947624 15.719096184524485)"/><path d="M2440 488.17v17.76" stroke="#333" fill="none"/><path d="M2440.47 488.18h-.94v-.5h.94z" stroke="#333" stroke-width=".05" fill="#333"/><path d="M2440 520.7l-4.64-14.27h9.28z" stroke="#333" fill="#333"/><path d="M2440 561.5v4.43" stroke="#333" fill="none"/><path d="M2440.47 561.5h-.94v-.5h.94z" stroke="#333" stroke-width=".05" fill="#333"/><path d="M2440 580.7l-4.64-14.27h9.28z" stroke="#333" fill="#333"/><path d="M2400 594.64a8.7 8.7 0 0 1 7.97-8.66l64.06-5.32A7.36 7.36 0 0 1 2480 588v24a8 8 0 0 1-8 8h-64a8 8 0 0 1-8-8z" stroke="#000" stroke-width="2" fill="#fff"/><use xlink:href="#b" transform="matrix(1,0,0,1,2405,591.6666666666666) translate(3.8535913862957134 15.719096184524485)"/><use xlink:href="#d" transform="matrix(1,0,0,1,2405,591.6666666666666) translate(37.84938293357366 15.719096184524485)"/><path d="M2440 621.5v9.67" stroke="#333" fill="none"/><path d="M2440.47 621.5h-.94v-.5h.94z" stroke="#333" stroke-width=".05" fill="#333"/><path d="M2440 645.94l-4.64-14.27h9.28z" stroke="#333" fill="#333"/><path d="M2432.84 650.24a16 16 0 0 1 14.32 0l25.68 12.85a4 4 0 0 1 0 7.14l-25.68 12.85a16 16 0 0 1-14.32 0l-25.68-12.86a4 4 0 0 1 0-7.15z" stroke="#000" stroke-width="2" fill="#fff"/><use xlink:href="#e" transform="matrix(1,0,0,1,2405,651.6666666666666) translate(10.558424647323008 11.71816637859277)"/><use xlink:href="#f" transform="matrix(1,0,0,1,2405,651.6666666666666) translate(24.338212342297012 11.71816637859277)"/><use xlink:href="#g" transform="matrix(1,0,0,1,2405,651.6666666666666) translate(54.623361822366334 11.71816637859277)"/><use xlink:href="#h" transform="matrix(1,0,0,1,2405,651.6666666666666) translate(2.835220032938261 25.004669844797274)"/><use xlink:href="#i" transform="matrix(1,0,0,1,2405,651.6666666666666) translate(31.5297066013958 25.004669844797274)"/><path d="M2501.7 667.14h-25.14v-.95h25.13zm40.92 0h-9.25v-.95h9.25z" stroke="#008a0e" stroke-width=".05" fill="#008a0e"/><path d="M2476.57 667.14h-.56l.06-.47-.05-.48h.57z" fill="#008a0e"/><path stroke="#008a0e" stroke-width=".05" fill="#008a0e"/><path d="M2557.38 666.67l-14.26 4.63v-9.27z" fill="#008a0e"/><path d="M2558.92 666.67l-16.28 5.3v-10.6zm-15.33 3.98l12.24-3.98-12.25-4z" stroke="#008a0e" stroke-width=".05" fill="#008a0e"/><use xlink:href="#j" transform="matrix(1,0,0,1,2501.693048987335,655.7770182291666) translate(0.005000000000000782 17.4375)"/><path d="M2560 654.67a8 8 0 0 1 8-8h64a8 8 0 0 1 8 8v24a8 8 0 0 1-8 8h-64a8 8 0 0 1-8-8z" stroke="#000" stroke-width="2" fill="#fff"/><use xlink:href="#k" transform="matrix(1,0,0,1,2565,651.6666666666666) translate(12.753152745811406 19.40259784207014)"/><path d="M2345.24 667.14h-7.85v-.95h7.84zm58.2 0h-23.74v-.95h23.74z" stroke="#e81313" stroke-width=".05" fill="#e81313"/><path d="M2403.94 666.67l.05.47h-.57v-.95h.56z" fill="#e81313"/><path stroke="#e81313" stroke-width=".05" fill="#e81313"/><path d="M2336.9 671.3l-14.27-4.63 14.26-4.64z" fill="#e81313"/><path d="M2337.37 671.96l-16.28-5.3 16.27-5.28zm-13.2-5.3l12.25 4v-7.98z" stroke="#e81313" stroke-width=".05" fill="#e81313"/><use xlink:href="#l" transform="matrix(1,0,0,1,2345.2424007745885,655.7770182291666) translate(0.004999999999999005 17.4375)"/><path d="M2306.67 653.33c7.36 0 13.33 5.97 13.33 13.34 0 7.36-5.97 13.33-13.33 13.33h-53.34c-7.36 0-13.33-5.97-13.33-13.33 0-7.37 5.97-13.34 13.33-13.34z" stroke="#000" stroke-width="2" fill="#fff"/><use xlink:href="#m" transform="matrix(1,0,0,1,2245,658.3333333333333) translate(6.610733847747845 10.412021635889495)"/><use xlink:href="#n" transform="matrix(1,0,0,1,2245,658.3333333333333) translate(38.74325097400522 10.412021635889495)"/><path d="M2600 688.17v14.45" stroke="#333" fill="none"/><path d="M2600.47 688.18h-.94v-.5h.94z" stroke="#333" stroke-width=".05" fill="#333"/><path d="M2600 717.38l-4.64-14.26h9.28z" stroke="#333" fill="#333"/><path d="M2560 728a8 8 0 0 1 8-8h64a8 8 0 0 1 8 8v24a8 8 0 0 1-8 8h-64a8 8 0 0 1-8-8z" stroke="#000" stroke-width="2" fill="#fff"/><use xlink:href="#o" transform="matrix(1,0,0,1,2565,725) translate(1.3182816663871317 18.361418111695023)"/><use xlink:href="#p" transform="matrix(1,0,0,1,2565,725) translate(40.38335424004398 18.361418111695023)"/><path d="M2600 761.5v14.45" stroke="#333" fill="none"/><path d="M2600.47 761.5h-.94v-.5h.94z" stroke="#333" stroke-width=".05" fill="#333"/><path d="M2600 790.7l-4.64-14.25h9.28z" stroke="#333" fill="#333"/><path d="M2560 801.33a8 8 0 0 1 8-8h64a8 8 0 0 1 8 8v24a8 8 0 0 1-8 8h-64a8 8 0 0 1-8-8z" stroke="#000" stroke-width="2" fill="#fff"/><use xlink:href="#q" transform="matrix(1,0,0,1,2565,798.3333333333334) translate(16.141383377825605 11.71816637859277)"/><use xlink:href="#r" transform="matrix(1,0,0,1,2565,798.3333333333334) translate(1.9661640320717078 25.004669844797274)"/><use xlink:href="#s" transform="matrix(1,0,0,1,2565,798.3333333333334) translate(46.20535922271295 25.004669844797274)"/><path d="M2600 834.83v67.8" stroke="#333" fill="none"/><path d="M2600.47 834.85h-.94v-.52h.94z" stroke="#333" stroke-width=".05" fill="#333"/><path d="M2600 917.38l-4.64-14.26h9.28z" stroke="#333" fill="#333"/><path d="M2626.67 920c7.36 0 13.33 5.97 13.33 13.33 0 7.37-5.97 13.34-13.33 13.34h-53.34c-7.36 0-13.33-5.97-13.33-13.34 0-7.36 5.97-13.33 13.33-13.33z" stroke="#000" stroke-width="2" fill="#fff"/><use xlink:href="#t" transform="matrix(1,0,0,1,2565,925) translate(29.20431104631368 10.99971055445489)"/><path d="M2280 681.5v54.45" stroke="#333" fill="none"/><path d="M2280.47 681.5h-.94v-.5h.94z" stroke="#333" stroke-width=".05" fill="#333"/><path d="M2280 750.7l-4.64-14.25h9.28z" stroke="#333" fill="#333"/><path d="M2251 759.58a16.64 16.64 0 0 1 13-6.25h48c4.42 0 8 8.96 8 20 0 11.05-3.58 20-8 20h-48a16.64 16.64 0 0 1-13-6.24l-6-7.52a10 10 0 0 1 0-12.5z" stroke="#000" stroke-width="2" fill="#fff"/><g><use xlink:href="#u" transform="matrix(1,0,0,1,2245,758.3333333333333) translate(19.027414607830433 12.489810364163802)"/><use xlink:href="#v" transform="matrix(1,0,0,1,2245,758.3333333333333) translate(5.239653268354883 23.356305757501858)"/><use xlink:href="#w" transform="matrix(1,0,0,1,2245,758.3333333333333) translate(29.149889802727674 23.356305757501858)"/></g><path d="M2382.62 540.48h-168.8l-1.82.14-1.76.42-1.67.7-1.54.94-1.37 1.17-1.18 1.38-.94 1.54-.7 1.67-.42 1.76-.14 1.82v209.3l.14 1.82.42 1.75.7 1.67.94 1.54 1.18 1.38 1.37 1.18 1.54.94 1.67.7 1.76.42 1.82.14h27.48v.95h-27.52l-1.93-.14-1.9-.46-1.8-.75-1.68-1.02-1.5-1.27-1.26-1.5-1-1.66-.76-1.8-.46-1.92-.15-1.93V551.98l.15-1.93.46-1.9.75-1.8 1-1.68 1.28-1.5 1.5-1.26 1.66-1.02 1.8-.75 1.9-.45 1.94-.15h168.84z" stroke="#333" stroke-width=".05" fill="#333"/><path d="M2241.8 773.33l.04.48h-.55v-.94h.54z" fill="#333"/><path stroke="#333" stroke-width=".05" fill="#333"/><path d="M2397.38 540l-14.26 4.63v-9.26z" fill="#333"/><path d="M2398.92 540l-16.28 5.3v-10.6zm-15.33 3.98l12.24-3.98-12.25-3.98z" stroke="#333" stroke-width=".05" fill="#333"/><defs><path fill="#666" d="M370-1490V0H180v-1490h190" id="x"/><path fill="#666" d="M338-670V0H158v-1118h173l1 207c72-158 192-221 342-221 226 0 378 139 378 422V0H872v-695c0-172-96-275-252-275-161 0-282 109-282 300" id="y"/><path fill="#666" d="M158 0v-1118h180V0H158zm12-1264l140-294h201l-194 294H170" id="z"/><path fill="#666" d="M613 24c-304 0-509-231-509-576 0-350 205-580 509-580 216 0 392 114 453 309l-173 49c-33-115-133-197-280-197-223 0-326 196-326 419 0 220 103 415 326 415 150 0 252-85 285-206l172 49C1010-95 832 24 613 24" id="A"/><path fill="#666" d="M158 0v-1118h180V0H158zm91-1301c-68 0-125-53-125-119s57-119 125-119c69 0 126 53 126 119s-57 119-126 119" id="B"/><path fill="#666" d="M613 24c-304 0-509-231-509-576 0-350 205-580 509-580 305 0 511 230 511 580 0 345-206 576-511 576zm0-161c226 0 329-195 329-415 0-222-103-419-329-419-223 0-326 196-326 419 0 220 103 415 326 415" id="C"/><g id="a"><use transform="matrix(0.003258838947133616,0,0,0.003258838947133616,0,0)" xlink:href="#x"/><use transform="matrix(0.003258838947133616,0,0,0.003258838947133616,1.792361420923489,0)" xlink:href="#y"/><use transform="matrix(0.003258838947133616,0,0,0.003258838947133616,5.735556546955164,0)" xlink:href="#z"/><use transform="matrix(0.003258838947133616,0,0,0.003258838947133616,7.351940664733437,0)" xlink:href="#A"/><use transform="matrix(0.003258838947133616,0,0,0.003258838947133616,11.164782232879768,0)" xlink:href="#B"/><use transform="matrix(0.003258838947133616,0,0,0.003258838947133616,12.78116635065804,0)" xlink:href="#C"/></g><path fill="#666" d="M645 0H180v-1490h484c435 0 692 280 692 742 0 466-257 748-711 748zM370-168h263c363 0 539-218 539-580 0-358-176-574-521-574H370v1154" id="D"/><path fill="#666" d="M611 442c-248 0-391-105-460-228l146-94c47 65 117 165 314 165 178 0 307-82 307-266v-224h-17C863-141 792-18 576-18c-268 0-472-195-472-546 0-346 197-568 476-568 216 0 288 133 326 193h17v-179h175V29c0 289-215 413-487 413zm-5-620c203 0 314-146 314-390 0-237-108-403-314-403-213 0-319 180-319 403 0 230 109 390 319 390" id="E"/><path fill="#666" d="M598-1118v154H368v674c0 100 37 144 132 144 23 0 62-6 92-12L629-6c-37 13-88 20-134 20-193 0-307-107-307-290v-688H20v-154h168v-266h180v266h230" id="F"/><path fill="#666" d="M471 26C259 26 90-98 90-318c0-256 228-303 435-329 202-27 287-16 287-108 0-139-79-219-234-219-161 0-248 86-283 164l-173-57c86-203 278-265 451-265 150 0 419 46 419 395V0H815v-152h-12C765-73 660 26 471 26zm31-159c199 0 310-134 310-271v-155c-30 35-226 55-295 64-131 17-246 59-246 186 0 116 97 176 231 176" id="G"/><path fill="#666" d="M158 0v-1118h174v172h12c41-113 157-188 290-188 26 0 70 2 91 3v181c-11-2-60-10-108-10-161 0-279 109-279 260V0H158" id="H"/><g id="b"><use transform="matrix(0.004924785100286534,0,0,0.004924785100286534,0,0)" xlink:href="#D"/><use transform="matrix(0.004924785100286534,0,0,0.004924785100286534,7.278832378223497,0)" xlink:href="#B"/><use transform="matrix(0.004924785100286534,0,0,0.004924785100286534,9.721525787965618,0)" xlink:href="#E"/><use transform="matrix(0.004924785100286534,0,0,0.004924785100286534,15.907055873925504,0)" xlink:href="#B"/><use transform="matrix(0.004924785100286534,0,0,0.004924785100286534,18.349749283667627,0)" xlink:href="#F"/><use transform="matrix(0.004924785100286534,0,0,0.004924785100286534,21.698603151862468,0)" xlink:href="#G"/><use transform="matrix(0.004924785100286534,0,0,0.004924785100286534,27.36210601719198,0)" xlink:href="#H"/></g><path fill="#666" d="M628 24c-324 0-524-230-524-574 0-343 198-582 503-582 237 0 487 146 487 559v75H286c9 234 145 362 343 362 132 0 231-58 273-172l174 48C1024-91 857 24 628 24zM287-650h624c-17-190-120-322-304-322-192 0-309 151-320 322" id="I"/><path fill="#666" d="M158 0v-1118h175l1 205c55-151 181-225 313-225 147 0 245 90 285 228 53-141 190-228 352-228 194 0 352 125 352 384V0h-181v-749c0-161-105-225-225-225-151 0-243 103-243 244V0H807v-767c0-124-93-207-219-207-131 0-250 92-250 270V0H158" id="J"/><path fill="#666" d="M338-1490V0H158v-1490h180" id="K"/><g id="c"><use transform="matrix(0.004924785100286534,0,0,0.004924785100286534,0,0)" xlink:href="#I"/><use transform="matrix(0.004924785100286534,0,0,0.004924785100286534,5.880193409742121,0)" xlink:href="#J"/><use transform="matrix(0.004924785100286534,0,0,0.004924785100286534,14.715257879656168,0)" xlink:href="#G"/><use transform="matrix(0.004924785100286534,0,0,0.004924785100286534,20.37876074498568,0)" xlink:href="#B"/><use transform="matrix(0.004924785100286534,0,0,0.004924785100286534,22.821454154727796,0)" xlink:href="#K"/></g><path fill="#666" d="M538 24C308 24 148-78 108-271l171-41c32 123 123 178 257 178 156 0 256-77 256-169 0-77-54-128-164-154l-186-44c-203-48-300-148-300-305 0-192 176-326 414-326 230 0 351 112 402 269l-163 42c-31-80-94-158-238-158-133 0-233 69-233 162 0 83 57 129 188 160l169 40c203 48 298 149 298 302 0 196-179 339-441 339" id="L"/><path fill="#666" d="M338-670V0H158v-1490h180v566c73-149 190-208 336-208 226 0 379 139 379 422V0H872v-695c0-172-96-275-252-275-161 0-282 109-282 300" id="M"/><g id="d"><use transform="matrix(0.004924785100286534,0,0,0.004924785100286534,0,0)" xlink:href="#L"/><use transform="matrix(0.004924785100286534,0,0,0.004924785100286534,5.323692693409743,0)" xlink:href="#I"/><use transform="matrix(0.004924785100286534,0,0,0.004924785100286534,11.203886103151866,0)" xlink:href="#y"/><use transform="matrix(0.004924785100286534,0,0,0.004924785100286534,17.16287607449857,0)" xlink:href="#M"/><use transform="matrix(0.004924785100286534,0,0,0.004924785100286534,23.126790830945563,0)" xlink:href="#G"/></g><path fill="#666" d="M657 26c-323 0-524-166-541-416h195c15 169 171 246 346 246 202 0 356-106 356-265 5-203-294-238-475-293-239-73-380-191-380-389 0-252 224-419 512-419 294 0 499 171 508 396H992c-17-145-151-228-328-228-193 0-321 102-321 242 0 156 175 211 284 241l149 41c160 44 422 134 422 412 0 244-197 432-541 432" id="N"/><g id="e"><use transform="matrix(0.00446815424610052,0,0,0.00446815424610052,0,0)" xlink:href="#N"/><use transform="matrix(0.00446815424610052,0,0,0.00446815424610052,5.871154679376084,0)" xlink:href="#I"/></g><path fill="#666" d="M180 0v-1490h908v168H370v486h669v168H370v500h727V0H180" id="O"/><path fill="#666" d="M180 0v-1490h270l367 940c28 72 75 218 110 339 35-117 81-264 110-339l362-940h271V0h-187c2-448-5-837 7-1287-157 497-311 829-483 1287H842C666-458 514-784 354-1284c12 438 5 843 7 1284H180" id="P"/><path fill="#666" d="M52 0l541-1490h220L1361 0h-200l-149-416H398L254 0H52zm404-582h497c-103-290-145-390-251-756-108 377-145 460-246 756" id="Q"/><path fill="#666" d="M180 0v-1490h190v1322h690V0H180" id="R"/><g id="f"><use transform="matrix(0.00446815424610052,0,0,0.00446815424610052,0,0)" xlink:href="#O"/><use transform="matrix(0.00446815424610052,0,0,0.00446815424610052,5.500297876949741,0)" xlink:href="#P"/><use transform="matrix(0.00446815424610052,0,0,0.00446815424610052,13.766383232235702,0)" xlink:href="#Q"/><use transform="matrix(0.00446815424610052,0,0,0.00446815424610052,20.079885181975733,0)" xlink:href="#x"/><use transform="matrix(0.00446815424610052,0,0,0.00446815424610052,22.53737001733102,0)" xlink:href="#R"/></g><use transform="matrix(0.00446815424610052,0,0,0.00446815424610052,0,0)" xlink:href="#I" id="g"/><g id="h"><use transform="matrix(0.00446815424610052,0,0,0.00446815424610052,0,0)" xlink:href="#L"/><use transform="matrix(0.00446815424610052,0,0,0.00446815424610052,4.830074740034663,0)" xlink:href="#I"/><use transform="matrix(0.00446815424610052,0,0,0.00446815424610052,10.165050909878682,0)" xlink:href="#y"/><use transform="matrix(0.00446815424610052,0,0,0.00446815424610052,15.57151754766031,0)" xlink:href="#M"/><use transform="matrix(0.00446815424610052,0,0,0.00446815424610052,20.982452339688038,0)" xlink:href="#G"/></g><g id="i"><use transform="matrix(0.00446815424610052,0,0,0.00446815424610052,0,0)" xlink:href="#A"/><use transform="matrix(0.00446815424610052,0,0,0.00446815424610052,5.2277404679376085,0)" xlink:href="#C"/><use transform="matrix(0.00446815424610052,0,0,0.00446815424610052,10.714633882149046,0)" xlink:href="#H"/><use transform="matrix(0.00446815424610052,0,0,0.00446815424610052,14.302561741767764,0)" xlink:href="#H"/><use transform="matrix(0.00446815424610052,0,0,0.00446815424610052,17.595591421143844,0)" xlink:href="#I"/><use transform="matrix(0.00446815424610052,0,0,0.00446815424610052,22.930567590987863,0)" xlink:href="#F"/><use transform="matrix(0.00446815424610052,0,0,0.00446815424610052,25.834867850953202,0)" xlink:href="#C"/><use transform="matrix(0.00446815424610052,0,0,0.00446815424610052,31.32176126516464,0)" xlink:href="#L"/></g><g id="j"><use transform="matrix(0.0087890625,0,0,0.0087890625,0,0)" xlink:href="#N"/><use transform="matrix(0.0087890625,0,0,0.0087890625,11.548828125,0)" xlink:href="#B"/><use transform="matrix(0.0087890625,0,0,0.0087890625,15.908203125,0)" xlink:href="#J"/></g><path fill="#666" d="M471 26C259 26 90-98 90-318c0-256 228-303 435-329 202-27 287-16 287-108 0-139-79-219-234-219-161 0-248 86-283 164l-173-57c86-203 278-265 451-265 150 0 419 46 419 395V0H815v-152h-12C765-73 660 26 471 26zm31-159c199 0 310-134 310-271v-155c-30 35-226 55-295 64-131 17-246 59-246 186 0 116 97 176 231 176zm187-1180c-99 0-192-83-243-83-35 0-51 40-53 79H267c4-120 55-208 162-208 104 0 174 85 241 85 33 0 49-23 56-81h123c-4 126-62 208-160 208" id="S"/><g id="k"><use transform="matrix(0.005748327759197324,0,0,0.005748327759197324,0,0)" xlink:href="#D"/><use transform="matrix(0.005748327759197324,0,0,0.005748327759197324,8.496028428093645,0)" xlink:href="#I"/><use transform="matrix(0.005748327759197324,0,0,0.005748327759197324,15.35953177257525,0)" xlink:href="#A"/><use transform="matrix(0.005748327759197324,0,0,0.005748327759197324,22.08507525083612,0)" xlink:href="#B"/><use transform="matrix(0.005748327759197324,0,0,0.005748327759197324,24.936245819397985,0)" xlink:href="#L"/><use transform="matrix(0.005748327759197324,0,0,0.005748327759197324,31.150188127090292,0)" xlink:href="#S"/><use transform="matrix(0.005748327759197324,0,0,0.005748327759197324,37.760765050167215,0)" xlink:href="#C"/></g><path d="M180 0v-1490h224l606 953c40 63 108 177 176 312-27-437-7-821-13-1265h190V0h-226C860-448 622-778 356-1262c27 476 11 792 15 1262H180" id="T"/><path d="M471 26C259 26 90-98 90-318c0-256 228-303 435-329 202-27 287-16 287-108 0-139-79-219-234-219-161 0-248 86-283 164l-173-57c86-203 278-265 451-265 150 0 419 46 419 395V0H815v-152h-12C765-73 660 26 471 26zm31-159c199 0 310-134 310-271v-155c-30 35-226 55-295 64-131 17-246 59-246 186 0 116 97 176 231 176zm187-1180c-99 0-192-83-243-83-35 0-51 40-53 79H267c4-120 55-208 162-208 104 0 174 85 241 85 33 0 49-23 56-81h123c-4 126-62 208-160 208" id="U"/><path d="M613 24c-304 0-509-231-509-576 0-350 205-580 509-580 305 0 511 230 511 580 0 345-206 576-511 576zm0-161c226 0 329-195 329-415 0-222-103-419-329-419-223 0-326 196-326 419 0 220 103 415 326 415" id="V"/><g id="l"><use transform="matrix(0.0087890625,0,0,0.0087890625,0,0)" xlink:href="#T"/><use transform="matrix(0.0087890625,0,0,0.0087890625,13.5615234375,0)" xlink:href="#U"/><use transform="matrix(0.0087890625,0,0,0.0087890625,23.6689453125,0)" xlink:href="#V"/></g><path fill="#666" d="M678-1118v154H420V0H240v-964H20v-154h220v-149c0-194 155-293 318-293 85 0 141 18 168 30l-50 154c-19-6-47-17-97-17-111 0-159 58-159 166v109h258" id="W"/><path fill="#666" d="M502 418V313h118c73 0 98-17 98-66s-25-65-98-65h-82l21-161C285-4 104-228 104-552c0-350 205-580 509-580 216 0 392 114 453 309l-173 49c-33-115-133-197-280-197-223 0-326 196-326 419 0 220 103 415 326 415 150 0 252-85 285-206l172 49C1015-110 859 5 663 22v64c130 5 189 54 189 162 0 118-71 170-231 170H502" id="X"/><path fill="#666" d="M613 24c-304 0-509-231-509-576 0-350 205-580 509-580 305 0 511 230 511 580 0 345-206 576-511 576zm0-161c226 0 329-195 329-415 0-222-103-419-329-419-223 0-326 196-326 419 0 220 103 415 326 415zm131-1176c-99 0-192-83-243-83-35 0-51 40-53 79H322c4-120 55-208 162-208 104 0 174 85 241 85 33 0 49-23 56-81h123c-4 126-62 208-160 208" id="Y"/><g id="m"><use transform="matrix(0.002533710544571627,0,0,0.002533710544571627,0,0)" xlink:href="#x"/><use transform="matrix(0.002533710544571627,0,0,0.002533710544571627,1.3935407995143951,0)" xlink:href="#y"/><use transform="matrix(0.002533710544571627,0,0,0.002533710544571627,4.459330558446063,0)" xlink:href="#W"/><use transform="matrix(0.002533710544571627,0,0,0.002533710544571627,6.227860518557058,0)" xlink:href="#C"/><use transform="matrix(0.002533710544571627,0,0,0.002533710544571627,9.339257067291017,0)" xlink:href="#H"/><use transform="matrix(0.002533710544571627,0,0,0.002533710544571627,11.373826634582034,0)" xlink:href="#J"/><use transform="matrix(0.002533710544571627,0,0,0.002533710544571627,15.919303351543533,0)" xlink:href="#G"/><use transform="matrix(0.002533710544571627,0,0,0.002533710544571627,18.833070477800906,0)" xlink:href="#X"/><use transform="matrix(0.002533710544571627,0,0,0.002533710544571627,21.79751181494971,0)" xlink:href="#Y"/><use transform="matrix(0.002533710544571627,0,0,0.002533710544571627,24.90890836368367,0)" xlink:href="#I"/><use transform="matrix(0.002533710544571627,0,0,0.002533710544571627,27.934158753902192,0)" xlink:href="#L"/></g><g id="n"><use transform="matrix(0.002533710544571627,0,0,0.002533710544571627,0,0)" xlink:href="#B"/><use transform="matrix(0.002533710544571627,0,0,0.002533710544571627,1.256720430107527,0)" xlink:href="#y"/><use transform="matrix(0.002533710544571627,0,0,0.002533710544571627,4.322510189039196,0)" xlink:href="#A"/><use transform="matrix(0.002533710544571627,0,0,0.002533710544571627,7.286951526188,0)" xlink:href="#C"/><use transform="matrix(0.002533710544571627,0,0,0.002533710544571627,10.398348074921957,0)" xlink:href="#H"/><use transform="matrix(0.002533710544571627,0,0,0.002533710544571627,12.432917642212972,0)" xlink:href="#H"/><use transform="matrix(0.002533710544571627,0,0,0.002533710544571627,14.30026231356226,0)" xlink:href="#I"/><use transform="matrix(0.002533710544571627,0,0,0.002533710544571627,17.325512703780785,0)" xlink:href="#F"/><use transform="matrix(0.002533710544571627,0,0,0.002533710544571627,19.048435874089492,0)" xlink:href="#G"/><use transform="matrix(0.002533710544571627,0,0,0.002533710544571627,21.962203000346864,0)" xlink:href="#L"/></g><path fill="#666" d="M600 0L52-1490h200c166 485 304 806 458 1336 156-533 285-846 449-1336h202L819 0H600" id="Z"/><g id="o"><use transform="matrix(0.00446815424610052,0,0,0.00446815424610052,0,0)" xlink:href="#Z"/><use transform="matrix(0.00446815424610052,0,0,0.00446815424610052,5.848813908145581,0)" xlink:href="#I"/><use transform="matrix(0.00446815424610052,0,0,0.00446815424610052,11.1837900779896,0)" xlink:href="#H"/><use transform="matrix(0.00446815424610052,0,0,0.00446815424610052,14.771717937608319,0)" xlink:href="#B"/><use transform="matrix(0.00446815424610052,0,0,0.00446815424610052,16.987922443674176,0)" xlink:href="#W"/><use transform="matrix(0.00446815424610052,0,0,0.00446815424610052,20.37478336221837,0)" xlink:href="#B"/><use transform="matrix(0.00446815424610052,0,0,0.00446815424610052,22.590987868284227,0)" xlink:href="#A"/><use transform="matrix(0.00446815424610052,0,0,0.00446815424610052,27.908091421143848,0)" xlink:href="#G"/><use transform="matrix(0.00446815424610052,0,0,0.00446815424610052,33.046468804159446,0)" xlink:href="#H"/></g><path fill="#666" d="M158 418v-1536h174v179h20c37-59 106-193 324-193 279 0 474 222 474 576 0 356-194 580-473 580-213 0-288-135-325-197h-14v591H158zm492-555c209 0 317-186 317-421 0-232-105-413-317-413-206 0-314 166-314 413 0 249 111 421 314 421" id="aa"/><g id="p"><use transform="matrix(0.00446815424610052,0,0,0.00446815424610052,0,0)" xlink:href="#aa"/><use transform="matrix(0.00446815424610052,0,0,0.00446815424610052,5.692428509532062,0)" xlink:href="#G"/><use transform="matrix(0.00446815424610052,0,0,0.00446815424610052,10.830805892547662,0)" xlink:href="#aa"/><use transform="matrix(0.00446815424610052,0,0,0.00446815424610052,16.433871317157713,0)" xlink:href="#I"/><use transform="matrix(0.00446815424610052,0,0,0.00446815424610052,21.768847487001736,0)" xlink:href="#B"/><use transform="matrix(0.00446815424610052,0,0,0.00446815424610052,23.98505199306759,0)" xlink:href="#L"/></g><path fill="#666" d="M783 20c-382 0-661-292-661-764 0-473 279-766 661-766 302 0 548 182 601 489h-190c-42-204-217-313-411-313-268 0-476 208-476 590 0 381 209 588 476 588 195 0 369-110 411-313h190c-52 303-296 489-601 489" id="ab"/><g id="q"><use transform="matrix(0.00446815424610052,0,0,0.00446815424610052,0,0)" xlink:href="#ab"/><use transform="matrix(0.00446815424610052,0,0,0.00446815424610052,6.6843587521663785,0)" xlink:href="#G"/><use transform="matrix(0.00446815424610052,0,0,0.00446815424610052,11.822736135181977,0)" xlink:href="#H"/><use transform="matrix(0.00446815424610052,0,0,0.00446815424610052,15.410663994800695,0)" xlink:href="#H"/><use transform="matrix(0.00446815424610052,0,0,0.00446815424610052,18.70369367417678,0)" xlink:href="#I"/><use transform="matrix(0.00446815424610052,0,0,0.00446815424610052,24.0386698440208,0)" xlink:href="#E"/><use transform="matrix(0.00446815424610052,0,0,0.00446815424610052,29.650671577123052,0)" xlink:href="#G"/><use transform="matrix(0.00446815424610052,0,0,0.00446815424610052,34.78904896013865,0)" xlink:href="#H"/></g><g id="r"><use transform="matrix(0.00446815424610052,0,0,0.00446815424610052,0,0)" xlink:href="#A"/><use transform="matrix(0.00446815424610052,0,0,0.00446815424610052,5.2277404679376085,0)" xlink:href="#C"/><use transform="matrix(0.00446815424610052,0,0,0.00446815424610052,10.714633882149046,0)" xlink:href="#y"/><use transform="matrix(0.00446815424610052,0,0,0.00446815424610052,16.121100519930675,0)" xlink:href="#W"/><use transform="matrix(0.00446815424610052,0,0,0.00446815424610052,19.239872183708837,0)" xlink:href="#C"/><use transform="matrix(0.00446815424610052,0,0,0.00446815424610052,24.726765597920277,0)" xlink:href="#H"/><use transform="matrix(0.00446815424610052,0,0,0.00446815424610052,28.314693457538993,0)" xlink:href="#J"/><use transform="matrix(0.00446815424610052,0,0,0.00446815424610052,36.330562175043326,0)" xlink:href="#I"/></g><g id="s"><use transform="matrix(0.00446815424610052,0,0,0.00446815424610052,0,0)" xlink:href="#aa"/><use transform="matrix(0.00446815424610052,0,0,0.00446815424610052,5.603065424610052,0)" xlink:href="#I"/><use transform="matrix(0.00446815424610052,0,0,0.00446815424610052,10.938041594454074,0)" xlink:href="#H"/><use transform="matrix(0.00446815424610052,0,0,0.00446815424610052,14.52596945407279,0)" xlink:href="#W"/><use transform="matrix(0.00446815424610052,0,0,0.00446815424610052,17.912830372616984,0)" xlink:href="#B"/><use transform="matrix(0.00446815424610052,0,0,0.00446815424610052,20.129034878682845,0)" xlink:href="#K"/></g><path fill="#666" d="M180 0v-1490h901v168H370v510h643v168H370V0H180" id="ac"/><g id="t"><use transform="matrix(0.003258838947133616,0,0,0.003258838947133616,0,0)" xlink:href="#ac"/><use transform="matrix(0.003258838947133616,0,0,0.003258838947133616,3.9399362870845422,0)" xlink:href="#x"/><use transform="matrix(0.003258838947133616,0,0,0.003258838947133616,5.732297708008031,0)" xlink:href="#P"/></g><path fill="#666" d="M295 13c-75 0-135-60-135-135s60-135 135-135 135 60 135 135S370 13 295 13zm0-809c-75 0-135-60-135-135s60-135 135-135 135 60 135 135-60 135-135 135" id="ad"/><g id="u"><use transform="matrix(0.003654323175053154,0,0,0.003654323175053154,0,0)" xlink:href="#x"/><use transform="matrix(0.003654323175053154,0,0,0.003654323175053154,2.0098777462792348,0)" xlink:href="#y"/><use transform="matrix(0.003654323175053154,0,0,0.003654323175053154,6.431608788093551,0)" xlink:href="#W"/><use transform="matrix(0.003654323175053154,0,0,0.003654323175053154,8.98232636428065,0)" xlink:href="#C"/><use transform="matrix(0.003654323175053154,0,0,0.003654323175053154,13.469835223245925,0)" xlink:href="#H"/><use transform="matrix(0.003654323175053154,0,0,0.003654323175053154,16.404256732813607,0)" xlink:href="#J"/><use transform="matrix(0.003654323175053154,0,0,0.003654323175053154,22.960112508858966,0)" xlink:href="#G"/><use transform="matrix(0.003654323175053154,0,0,0.003654323175053154,27.162584160170095,0)" xlink:href="#H"/><use transform="matrix(0.003654323175053154,0,0,0.003654323175053154,29.980067328136077,0)" xlink:href="#ad"/></g><path fill="#666" d="M577 24c-279 0-473-224-473-580 0-354 195-576 474-576 218 0 287 134 324 193h14v-551h180V0H922v-173h-20C865-111 790 24 577 24zm27-161c203 0 314-172 314-421 0-247-108-413-314-413-212 0-317 181-317 413 0 235 108 421 317 421" id="ae"/><g id="v"><use transform="matrix(0.003654323175053154,0,0,0.003654323175053154,0,0)" xlink:href="#ae"/><use transform="matrix(0.003654323175053154,0,0,0.003654323175053154,4.582521261516655,0)" xlink:href="#G"/><use transform="matrix(0.003654323175053154,0,0,0.003654323175053154,8.784992912827782,0)" xlink:href="#ae"/><use transform="matrix(0.003654323175053154,0,0,0.003654323175053154,13.36751417434444,0)" xlink:href="#C"/><use transform="matrix(0.003654323175053154,0,0,0.003654323175053154,17.855023033309713,0)" xlink:href="#L"/></g><g id="w"><use transform="matrix(0.003654323175053154,0,0,0.003654323175053154,0,0)" xlink:href="#B"/><use transform="matrix(0.003654323175053154,0,0,0.003654323175053154,1.8125442948263644,0)" xlink:href="#y"/><use transform="matrix(0.003654323175053154,0,0,0.003654323175053154,6.234275336640681,0)" xlink:href="#A"/><use transform="matrix(0.003654323175053154,0,0,0.003654323175053154,10.509833451452872,0)" xlink:href="#C"/><use transform="matrix(0.003654323175053154,0,0,0.003654323175053154,14.997342310418144,0)" xlink:href="#H"/><use transform="matrix(0.003654323175053154,0,0,0.003654323175053154,17.931763819985825,0)" xlink:href="#H"/><use transform="matrix(0.003654323175053154,0,0,0.003654323175053154,20.625,0)" xlink:href="#I"/><use transform="matrix(0.003654323175053154,0,0,0.003654323175053154,24.988261871013464,0)" xlink:href="#F"/><use transform="matrix(0.003654323175053154,0,0,0.003654323175053154,27.363571934798014,0)" xlink:href="#C"/><use transform="matrix(0.003654323175053154,0,0,0.003654323175053154,31.85108079376329,0)" xlink:href="#L"/></g></defs></g></svg>